<svg width="1200" height="1200" viewBox="0 0 1200 1200" fill="none" xmlns="http://www.w3.org/2000/svg">
  <rect width="1200" height="1200" fill="#f4f4f5"/>
  <rect x="120" y="170" width="960" height="860" rx="32" fill="#ffffff"/>
  <rect x="168" y="226" width="864" height="88" rx="16" fill="#f4f4f5"/>
  <rect x="208" y="258" width="212" height="24" rx="12" fill="#d4d4d8"/>
  <rect x="456" y="258" width="120" height="24" rx="12" fill="#e4e4e7"/>
  <rect x="608" y="258" width="120" height="24" rx="12" fill="#e4e4e7"/>
  <rect x="168" y="370" width="258" height="160" rx="20" fill="#fafafa" stroke="#e4e4e7" stroke-width="4"/>
  <rect x="472" y="370" width="258" height="160" rx="20" fill="#fafafa" stroke="#e4e4e7" stroke-width="4"/>
  <rect x="774" y="370" width="258" height="160" rx="20" fill="#fafafa" stroke="#e4e4e7" stroke-width="4"/>
  <rect x="204" y="410" width="104" height="18" rx="9" fill="#d4d4d8"/>
  <rect x="204" y="454" width="154" height="38" rx="19" fill="#346ce6"/>
  <rect x="508" y="410" width="104" height="18" rx="9" fill="#d4d4d8"/>
  <rect x="508" y="454" width="154" height="38" rx="19" fill="#18181b"/>
  <rect x="810" y="410" width="104" height="18" rx="9" fill="#d4d4d8"/>
  <rect x="810" y="454" width="154" height="38" rx="19" fill="#71717a"/>
  <rect x="168" y="590" width="864" height="336" rx="24" fill="#fafafa" stroke="#e4e4e7" stroke-width="4"/>
  <path d="M228 838C302 758 351 761 403 799C460 841 504 835 563 756C618 683 678 674 739 730C802 789 856 785 972 658" stroke="#346ce6" stroke-width="18" stroke-linecap="round" stroke-linejoin="round"/>
  <path d="M228 858C314 820 384 828 454 862C534 901 607 883 674 810C748 730 833 714 972 770" stroke="#18181b" stroke-width="18" stroke-linecap="round" stroke-linejoin="round" opacity=".72"/>
  <circle cx="228" cy="838" r="16" fill="#346ce6"/>
  <circle cx="403" cy="799" r="16" fill="#346ce6"/>
  <circle cx="563" cy="756" r="16" fill="#346ce6"/>
  <circle cx="739" cy="730" r="16" fill="#346ce6"/>
  <circle cx="972" cy="658" r="16" fill="#346ce6"/>
  <rect x="216" y="638" width="156" height="22" rx="11" fill="#d4d4d8"/>
  <rect x="216" y="684" width="96" height="16" rx="8" fill="#e4e4e7"/>
  <rect x="332" y="684" width="96" height="16" rx="8" fill="#e4e4e7"/>
  <rect x="448" y="684" width="96" height="16" rx="8" fill="#e4e4e7"/>
</svg>
