<svg xmlns="http://www.w3.org/2000/svg" fill="none" viewBox="0 0 231 36" height="1em">
  <path fill="currentColor" d="M.8 27V.68h6.56v21.16h12V27zM21.813 5.16V.32h6.08v4.84zm0 21.84V7.24h6.08V27zm18.813.32c-6.96 0-9.88-2.96-9.88-6.96h5.44c0 1.84.92 3.04 4.4 3.04 3.16 0 4.28-.92 4.28-2.36 0-.72-.36-1.28-1.4-1.52s-2.64-.4-4.6-.56c-2.84-.24-5.04-.68-6.24-1.52-1.12-.8-1.88-2.24-1.88-3.88 0-4.28 4.4-6.64 9.88-6.64 6.48 0 9.44 2.48 9.44 7.08h-5.36c-.04-2.08-1-3.16-4-3.16-2.72 0-3.92.92-3.92 2.28 0 .84.32 1.48 1.44 1.76 1 .24 2.76.4 4.88.6 2.44.24 4.16.48 5.64 1.32 1.28.72 2.2 2.2 2.2 3.92 0 4.16-3.56 6.6-10.32 6.6m23.059 0c-6.16 0-8.36-2.72-8.36-7.12v-8.24h-2.92V7.24h2.36c.92 0 1.24-.52 1.36-1.72l.28-2.76h5v4.48h6.32v4.72h-6.32v7.92c0 2.04.96 2.68 3.36 2.68.84 0 2.08-.12 2.76-.28v4.6c-.52.12-2.2.44-3.84.44m16.1-.32V.68h6.56v10.2h11.28V.68h6.559V27h-6.56V16h-11.28v11zm33.767 8.4c-2 0-3.28-.32-3.8-.52v-4.52c.6.16 1.52.32 2.52.32 2 0 2.92-.96 3.92-3.68h-1.32l-8.2-19.76h6.96l5.08 13.6h.08l4.6-13.6h5.84l-7.16 20.24c-2 5.68-4.44 7.92-8.52 7.92m30.936-12c4.48 0 7.12 1.96 7.12 5.24 0 4.52-4.04 6.92-10.88 6.92-6.96 0-11.08-1.92-11.08-5.2 0-2.08 1.36-3.36 3.56-3.6v-.04c-1.2-.76-1.84-1.84-1.84-3.24 0-1.88.96-3.04 2.44-3.72v-.04c-2.08-1.2-3.24-3.16-3.24-5.72 0-4.44 3.44-7.08 9.24-7.08 2.32 0 4.24.4 5.72 1.2l.04-.08c-.8-.72-1.16-1.52-1.16-2.24 0-1.64 1.64-2.6 4.16-2.6 1.08 0 1.64.08 2.2.2v3.84q-.54-.12-1.2-.12c-1.28 0-1.88.56-1.88 1.48 0 .48.16 1.08.44 1.8q.96 1.5.96 3.6c0 4.44-3.44 7.04-9.28 7.04-1.2 0-2.28-.12-3.28-.32-.16.24-.36.72-.36 1.28 0 .88.72 1.4 1.92 1.4zm-4.68-12.64c-2.2 0-3.52 1.2-3.52 3.24 0 2 1.32 3.2 3.52 3.2 2.24 0 3.56-1.2 3.56-3.2 0-2.04-1.32-3.24-3.56-3.24m.84 21.12c3.08 0 4.88-.84 4.88-2.4 0-1.08-.8-1.68-2.56-1.68h-4.68c-1.64 0-2.6.68-2.6 1.8 0 1.48 1.84 2.28 4.96 2.28m13.43-26.72V.32h6.08v4.84zm0 21.84V7.24h6.08V27zm29.094-10.44v1.72h-14.04c.28 3.24 1.92 4.64 4.64 4.64 2.36 0 3.88-.84 4.04-2.76h5.36c-.12 4.52-3.88 7.16-9.52 7.16-6.56 0-10.64-3.72-10.64-10 0-6.52 4.08-10.4 10.76-10.4 5.52 0 9.4 3.16 9.4 9.64m-5.36-1.52v-.32c0-2.24-1.52-3.4-4.04-3.4-2.56 0-4 1.12-4.48 3.72zM185.833 27V7.24h6.08l-.24 5.24h.08c1-3.76 3.32-5.56 7.8-5.56 4.759 0 7.84 2.6 7.84 7.72V27h-6.08V16c0-2.8-1.6-4.04-4.28-4.04-3.2 0-5.12 1.88-5.12 5.64V27zm44.214-10.44v1.72h-14.04c.28 3.24 1.92 4.64 4.64 4.64 2.36 0 3.88-.84 4.04-2.76h5.36c-.12 4.52-3.88 7.16-9.52 7.16-6.56 0-10.64-3.72-10.64-10 0-6.52 4.08-10.4 10.76-10.4 5.52 0 9.4 3.16 9.4 9.64m-5.36-1.52v-.32c0-2.24-1.52-3.4-4.04-3.4-2.56 0-4 1.12-4.48 3.72z"/>
</svg>